name analog
datacolumns 19
datarows 23
range 0.3145 0.3255
endheader
time	ground_force_vx	ground_force_vy	ground_force_vz	ground_force_px	ground_force_py	ground_force_pz	l_ground_force_vx	l_ground_force_vy	l_ground_force_vz	l_ground_force_px	l_ground_force_py	l_ground_force_pz	ground_torque_x	ground_torque_y	ground_torque_z	l_ground_torque_x	l_ground_torque_y	l_ground_torque_z
0.3145	-0.0	-0.0	-0.0	-0.0	-0.0	-0.0	-2.064734935760498	-3.652152538299561	-505.1264343261719	-0.0	-0.0	-0.0	-0.0	-0.0	-0.0	171436.734375	-20478.484375	-835.9441528320312
0.315	-0.0	-0.0	-0.0	-0.0	-0.0	-0.0	-1.7497515678405762	-4.333908557891846	-505.0055236816406	-0.0	-0.0	-0.0	-0.0	-0.0	-0.0	171271.34375	-20703.884765625	-663.1347045898438
0.3155	-0.0	-0.0	-0.0	-0.0	-0.0	-0.0	-0.9022397398948668	-4.352181434631348	-505.8241882324219	-0.0	-0.0	-0.0	-0.0	-0.0	-0.0	171680.359375	-21270.62109375	-290.1861572265625
0.316	-0.0	-0.0	-0.0	-0.0	-0.0	-0.0	0.0887107849121093	-4.381951808929443	-509.5677185058594	-0.0	-0.0	-0.0	-0.0	-0.0	-0.0	172003.546875	-21780.46484375	181.92156982421875
0.3165	-0.0	-0.0	-0.0	-0.0	-0.0	-0.0	1.5227664709091189	-3.92534065246582	-509.35443115234375	-0.0	-0.0	-0.0	-0.0	-0.0	-0.0	172524.703125	-22156.919921875	487.8718872070313
0.317	-0.0	-0.0	-0.0	-0.0	-0.0	-0.0	2.153796911239624	-3.797832489013672	-511.2150268554688	-0.0	-0.0	-0.0	-0.0	-0.0	-0.0	172569.84375	-22687.134765625	653.176025390625
0.3175	-0.0	-0.0	-0.0	-0.0	-0.0	-0.0	2.803380250930786	-3.9497694969177246	-511.5217590332031	-0.0	-0.0	-0.0	-0.0	-0.0	-0.0	172813.109375	-23025.84765625	759.1873779296875
0.318	-0.0	-0.0	-0.0	-0.0	-0.0	-0.0	2.991279602050781	-3.659954786300659	-512.0648193359375	-0.0	-0.0	-0.0	-0.0	-0.0	-0.0	172974.390625	-23413.267578125	878.0989379882812
0.3185	-0.0	-0.0	-0.0	-0.0	-0.0	-0.0	3.714765548706055	-3.546668767929077	-512.5545654296875	-0.0	-0.0	-0.0	-0.0	-0.0	-0.0	173354.34375	-23713.162109375	1011.246337890625
0.319	-0.0	-0.0	-0.0	-0.0	-0.0	-0.0	4.626591682434082	-3.659677028656006	-513.9600219726562	-0.0	-0.0	-0.0	-0.0	-0.0	-0.0	173636.09375	-24187.654296875	1103.740966796875
0.3195	-0.0	-0.0	-0.0	-0.0	-0.0	-0.0	5.259025573730469	-3.331244945526123	-513.7537231445312	-0.0	-0.0	-0.0	-0.0	-0.0	-0.0	173609.21875	-24701.470703125	1430.662109375
0.32	-0.0	-0.0	-0.0	-0.0	-0.0	-0.0	5.9052348136901855	-3.431377410888672	-513.1487426757812	-0.0	-0.0	-0.0	-0.0	-0.0	-0.0	173538.34375	-24914.890625	1571.0994873046875
0.3205	-0.0	-0.0	-0.0	-0.0	-0.0	-0.0	6.247988700866699	-3.3181581497192383	-513.60205078125	-0.0	-0.0	-0.0	-0.0	-0.0	-0.0	174013.375	-25119.8359375	1728.4605712890625
0.321	-0.0	-0.0	-0.0	-0.0	-0.0	-0.0	6.843536376953125	-3.053318738937378	-514.1503295898438	-0.0	-0.0	-0.0	-0.0	-0.0	-0.0	174235.15625	-25527.361328125	1830.623046875
0.3215	-0.0	-0.0	-0.0	-0.0	-0.0	-0.0	6.754823684692383	-2.965150594711304	-516.046142578125	-0.0	-0.0	-0.0	-0.0	-0.0	-0.0	174778.484375	-25797.50390625	1889.858154296875
0.322	-0.0	-0.0	-0.0	-0.0	-0.0	-0.0	7.298999309539795	-2.9269189834594727	-516.7930297851562	-0.0	-0.0	-0.0	-0.0	-0.0	-0.0	175125.8125	-25742.76953125	1843.6180419921875
0.3225	-0.0	-0.0	-0.0	-0.0	-0.0	-0.0	6.7420196533203125	-3.709510803222656	-516.0985717773438	-0.0	-0.0	-0.0	-0.0	-0.0	-0.0	175376.546875	-26329.466796875	1825.960205078125
0.323	-0.0	-0.0	-0.0	-0.0	-0.0	-0.0	6.335995197296143	-3.256016254425049	-518.040283203125	-0.0	-0.0	-0.0	-0.0	-0.0	-0.0	175579.0	-26036.771484375	1665.4383544921875
0.3235	-0.0	-0.0	-0.0	-0.0	-0.0	-0.0	5.600530624389648	-3.467945098876953	-518.4439086914062	-0.0	-0.0	-0.0	-0.0	-0.0	-0.0	175657.0625	-26201.509765625	1537.0540771484375
0.324	-0.0	-0.0	-0.0	-0.0	-0.0	-0.0	5.362564086914063	-3.054162740707397	-518.4447631835938	-0.0	-0.0	-0.0	-0.0	-0.0	-0.0	176217.828125	-26248.40625	1487.128662109375
0.3245	-0.0	-0.0	-0.0	-0.0	-0.0	-0.0	5.222633361816406	-3.4044198989868164	-521.372314453125	-0.0	-0.0	-0.0	-0.0	-0.0	-0.0	176503.1875	-26413.099609375	1647.8486328125
0.325	-0.0	-0.0	-0.0	-0.0	-0.0	-0.0	5.803182125091553	-2.6496505737304688	-522.22900390625	-0.0	-0.0	-0.0	-0.0	-0.0	-0.0	177281.625	-26356.568359375	1584.2972412109375
0.3255	-0.0	-0.0	-0.0	-0.0	-0.0	-0.0	5.651548385620117	-2.07221794128418	-522.8841552734375	-0.0	-0.0	-0.0	-0.0	-0.0	-0.0	177629.796875	-26231.58203125	1694.3433837890625
